<svg width="1600" height="900" viewBox="0 0 1600 900" fill="none" xmlns="http://www.w3.org/2000/svg">
  <rect width="1600" height="900" fill="#F8FAFC"/>
  <rect x="70" y="70" width="1460" height="760" rx="20" fill="white" stroke="#E2E8F0" stroke-width="2"/>
  <rect x="70" y="70" width="1460" height="64" rx="20" fill="#F1F5F9"/>
  <circle cx="110" cy="102" r="9" fill="#CBD5E1"/>
  <circle cx="140" cy="102" r="9" fill="#CBD5E1"/>
  <circle cx="170" cy="102" r="9" fill="#CBD5E1"/>
  <rect x="130" y="180" width="320" height="180" rx="16" fill="#F8FAFC" stroke="#E2E8F0"/>
  <rect x="490" y="180" width="320" height="180" rx="16" fill="#F8FAFC" stroke="#E2E8F0"/>
  <rect x="850" y="180" width="620" height="540" rx="16" fill="#0F172A"/>
  <rect x="130" y="390" width="680" height="330" rx="16" fill="#F8FAFC" stroke="#E2E8F0"/>
  <rect x="890" y="230" width="300" height="14" rx="7" fill="#475569"/>
  <rect x="890" y="260" width="450" height="14" rx="7" fill="#334155"/>
  <rect x="890" y="300" width="220" height="14" rx="7" fill="#7C3AED"/>
  <rect x="890" y="330" width="500" height="14" rx="7" fill="#334155"/>
  <rect x="890" y="360" width="420" height="14" rx="7" fill="#334155"/>
  <text x="800" y="810" text-anchor="middle" fill="#64748B" font-size="28" font-family="Arial, sans-serif">Dashboard Preview Placeholder</text>
</svg>
